{"title":"NRL 360 - 5-9-2016","uid":15766621,"size":1252340890,"categoryP":"video","categoryS":"tv_shows","magnet":"?xt=urn:btih:cd8e80f4d497e402f4b5f2bc8dbd6d54930203ea&amp;dn=NRL+360+-+5-9-2016&amp;tr=udp%3A%2F%2Ftracker.leechers-paradise.org%3A6969&amp;tr=udp%3A%2F%2Fzer0day.ch%3A1337&amp;tr=udp%3A%2F%2Fopen.demonii.com%3A1337&amp;tr=udp%3A%2F%2Ftracker.coppersurfer.tk%3A6969&amp;tr=udp%3A%2F%2Fexodus.desync.com%3A6969","seeders":3,"leechers":0,"uploader":"Bullrout","files":1,"time":1473155474,"description":"NRL 360 - 5-9-2016\r\n\r\nOn the agenda; Jack Wighton's shoulder charge, Robbie Farah's farewell, Round 26 review &amp; Greg Alexander's Finals form guide. Plus Paul Crawley &amp; Andrew Webster are in for Journalists' Night.\r\n\r\n\r\nComplete name                            : NRL 360 - 5-9-2016.mkv\r\nFormat                                   : Matroska\r\nFormat version                           : Version 4 / Version 2\r\nFile size                                : 1.17 GiB\r\nDuration                                 : 50mn 42s\r\nOverall bit rate mode                    : Variable\r\nOverall bit rate                         : 3 293 Kbps\r\nEncoded date                             : UTC 2016-09-06 04:21:57\r\nWriting application                      : mkvmerge v9.4.0 ('Knurl') 64bit\r\nWriting library                          : libebml v1.3.4 + libmatroska v1.4.5\r\n\r\nVideo\r\nID                                       : 2\r\nFormat                                   : AVC\r\nFormat/Info                              : Advanced Video Codec\r\nFormat profile                           :   \r\nFormat settings, CABAC                   : Yes\r\nFormat settings, ReFrames                : 3 frames\r\nCodec ID                                 : V_MPEG4/ISO/AVC\r\nDuration                                 : 50mn 42s\r\nBit rate mode                            : Variable\r\nBit rate                                 : 2 908 Kbps\r\nMaximum bit rate                         : 3 000 Kbps\r\nWidth                                    : 1 280 pixels\r\nHeight                                   : 720 pixels\r\nDisplay aspect ratio                     : 16:9\r\nFrame rate mode                          : Constant\r\nFrame rate                               : 25.000 fps\r\nStandard                                 : PAL\r\nColor space                              : YUV\r\nChroma subsampling                       : 4:2:0\r\nBit depth                                : 8 bits\r\nScan type                                : Progressive\r\nBits/(Pixel*Frame)                       : 0.126\r\nStream size                              : 1.03 GiB (88%)\r\nWriting library                          : x264 core 112\r\nDefault                                  : Yes\r\nForced                                   : No\r\nColor range                              : Limited\r\nColor primaries                          : BT.709\r\nTransfer characteristics                 : BT.709\r\nMatrix coefficients                      : BT.709\r\n\r\nAudio\r\nID                                       : 1\r\nFormat                                   : AC-3\r\nFormat/Info                              : Audio Coding 3\r\nMode extension                           : CM (complete main)\r\nFormat settings, Endianness              : Big\r\nCodec ID                                 : A_AC3\r\nDuration                                 : 50mn 42s\r\nBit rate mode                            : Constant\r\nBit rate                                 : 384 Kbps\r\nChannel(s)                               : 6 channels\r\nChannel positions                        : Front: L C R, Side: L R, LFE\r\nSampling rate                            : 48.0 KHz\r\nFrame rate                               : 31.250 fps (1536 spf)\r\nCompression mode                         : Lossy\r\nStream size                              : 139 MiB (12%)\r\nDefault                                  : Yes\r\nForced                                   : No","torrent":{"xt":"urn:btih:cd8e80f4d497e402f4b5f2bc8dbd6d54930203ea","amp;dn":"NRL+360+-+5-9-2016","amp;tr":["udp%3A%2F%2Ftracker.leechers-paradise.org%3A6969","udp%3A%2F%2Fzer0day.ch%3A1337","udp%3A%2F%2Fopen.demonii.com%3A1337","udp%3A%2F%2Ftracker.coppersurfer.tk%3A6969","udp%3A%2F%2Fexodus.desync.com%3A6969"],"infoHash":"cd8e80f4d497e402f4b5f2bc8dbd6d54930203ea","infoHashBuffer":{"type":"Buffer","data":[205,142,128,244,212,151,228,2,244,181,242,188,141,189,109,84,147,2,3,234]},"announce":[],"urlList":[]}}